<svg width="21" height="21" viewBox="0 0 21 21" fill="none" xmlns="http://www.w3.org/2000/svg">
    <path d="M20.7266 1.28125C21 2.53125 21 3.50781 20.9609 4.48438C20.9609 8.50781 18.8125 10.9297 15.9609 12.7266V16.8281C15.9609 17.4531 15.5312 18.1953 14.9453 18.5078L11.0781 20.4219C10.9609 20.4609 10.8047 20.5 10.6875 20.5C10.1406 20.5 9.75 20.1094 9.75 19.5625V15.5C9.75 13.4688 8.07031 11.75 6 11.75H1.9375C1.39062 11.75 1 11.3594 1 10.8125C1 10.6953 1.03906 10.5391 1.07812 10.4219L3.03125 6.55469C3.30469 5.96875 4.04688 5.5 4.67188 5.5H8.77344C10.5703 2.6875 12.9922 0.5 17.0156 0.5C17.9922 0.5 18.9688 0.5 20.2188 0.773438C20.4531 0.851562 20.6484 1.04688 20.7266 1.28125ZM16 7.0625C16.8594 7.0625 17.5625 6.39844 17.5625 5.5C17.5625 4.64062 16.8594 3.9375 16 3.9375C15.1016 3.9375 14.4375 4.64062 14.4375 5.5C14.4375 6.39844 15.1016 7.0625 16 7.0625ZM2.36719 14.2891C3.92969 12.6875 6.03906 12.6094 7.48438 14.0156C8.89062 15.4609 8.8125 17.5703 7.21094 19.1328C6.23438 20.1484 3.69531 20.6172 1 20.5C0.882812 17.8047 1.35156 15.2656 2.36719 14.2891ZM5.57031 17.5703C6.07812 17.0234 6.11719 16.3203 5.64844 15.8516C5.17969 15.3828 4.47656 15.4219 3.92969 15.9297C3.61719 16.2812 3.46094 17.1016 3.5 18C4.39844 18.0391 5.21875 17.8828 5.57031 17.5703Z" fill="#FE4C1C"></path>
</svg>
