<svg xmlns="http://www.w3.org/2000/svg" version="1.1" xmlns:xlink="http://www.w3.org/1999/xlink" width="512" height="512" x="0" y="0" viewBox="0 0 2.54 2.54" style="enable-background:new 0 0 512 512" xml:space="preserve" fill-rule="evenodd" class=""><g><circle cx="1.27" cy="1.27" r="1.27" fill="#48b02c" opacity="1" data-original="#48b02c" class=""></circle><g fill="#fff"><path d="m.962 1.626.895-.895a.068.068 0 0 1 .096 0l.087.087a.068.068 0 0 1 0 .096l-.896.895a.068.068 0 0 1-.095 0l-.087-.087a.068.068 0 0 1 0-.096z" fill="#ffffff" opacity="1" data-original="#ffffff" class=""></path><path d="m.683 1.08.545.546a.068.068 0 0 1 0 .096l-.086.086a.068.068 0 0 1-.096 0L.5 1.263a.068.068 0 0 1 0-.096l.087-.086a.068.068 0 0 1 .096 0z" fill="#ffffff" opacity="1" data-original="#ffffff" class=""></path></g></g></svg>
