<svg xmlns="http://www.w3.org/2000/svg" version="1.1" xmlns:xlink="http://www.w3.org/1999/xlink" width="512" height="512" x="0" y="0" viewBox="0 0 32 32" style="enable-background:new 0 0 512 512" xml:space="preserve" class=""><g><path d="M16 31c-.08 0-.17-.02-.24-.06l-2-1.11a.509.509 0 0 1-.26-.44v-2.45c0-.18.1-.35.26-.44l2-1.11a.53.53 0 0 1 .49 0l2 1.11c.16.09.26.26.26.44v2.45c0 .18-.1.35-.26.44l-2 1.11c-.08.04-.17.06-.25.06zm-1.5-1.9 1.5.83 1.5-.83v-1.86L16 26.4l-1.5.83zM26.5 25.08c-.08 0-.17-.02-.24-.06l-2-1.11a.509.509 0 0 1-.26-.44v-2.44c0-.18.1-.35.26-.44l2-1.11a.53.53 0 0 1 .49 0l2 1.11c.15.09.25.26.25.44v2.44c0 .18-.1.35-.26.44l-2 1.11c-.07.04-.16.06-.24.06zm-1.5-1.9 1.5.83 1.5-.83v-1.85l-1.5-.83-1.5.82zM5.5 25.08c-.08 0-.17-.02-.24-.06l-2-1.11a.509.509 0 0 1-.26-.44v-2.44c0-.18.1-.35.26-.44l2-1.11a.53.53 0 0 1 .49 0l2 1.11c.15.09.25.26.25.44v2.44c0 .18-.1.35-.26.44l-2 1.11c-.07.04-.16.06-.24.06zM4 23.18l1.5.83 1.5-.83v-1.85l-1.5-.83-1.5.82zM16 6.67c-.08 0-.17-.02-.24-.06l-2-1.11a.509.509 0 0 1-.26-.44V2.61c0-.18.1-.35.26-.44l2-1.11a.53.53 0 0 1 .49 0l2 1.11c.16.09.26.26.26.44v2.45c0 .18-.1.35-.26.44l-2 1.11c-.08.04-.17.06-.25.06zm-1.5-1.9 1.5.83 1.5-.83V2.9L16 2.07l-1.5.83zM26.5 12.08c-.08 0-.17-.02-.24-.06l-2-1.11a.509.509 0 0 1-.26-.44V8.03c0-.18.1-.35.26-.44l2-1.11a.53.53 0 0 1 .49 0l2 1.11c.15.09.25.26.25.44v2.44c0 .18-.1.35-.26.44l-2 1.11c-.07.04-.16.06-.24.06zm-1.5-1.9 1.5.83 1.5-.83V8.32l-1.5-.83-1.5.83zM5.5 12.08c-.08 0-.17-.02-.24-.06l-2-1.11a.509.509 0 0 1-.26-.44V8.03c0-.18.1-.35.26-.44l2-1.11a.53.53 0 0 1 .49 0l2 1.11c.15.09.25.26.25.44v2.44c0 .18-.1.35-.26.44l-2 1.11c-.07.04-.16.06-.24.06zM4 10.18l1.5.83 1.5-.83V8.32l-1.5-.83-1.5.83z" fill="#e04023" opacity="1" data-original="#000000" class=""></path><path d="M26.5 20.42c-.28 0-.5-.22-.5-.5v-8.34c0-.28.22-.5.5-.5s.5.22.5.5v8.34c0 .28-.22.5-.5.5zM18 27.64a.49.49 0 0 1-.44-.26.503.503 0 0 1 .19-.68l6.55-3.64c.24-.13.55-.05.68.19s.05.55-.19.68l-6.55 3.64a.42.42 0 0 1-.24.07zM14 27.64c-.08 0-.17-.02-.24-.06l-6.55-3.64a.494.494 0 0 1-.19-.68c.13-.24.44-.33.68-.19l6.55 3.64c.24.13.33.44.19.68a.5.5 0 0 1-.44.25zM5.5 20.42c-.28 0-.5-.22-.5-.5v-8.34c0-.28.22-.5.5-.5s.5.22.5.5v8.34c0 .28-.22.5-.5.5zM7.5 8.97a.495.495 0 0 1-.24-.93l6.5-3.61c.24-.14.54-.05.68.19.13.24.05.55-.19.68l-6.5 3.61c-.08.04-.17.06-.25.06zM24.5 8.97c-.08 0-.17-.02-.24-.06l-6.5-3.61a.494.494 0 0 1-.19-.68c.13-.24.43-.33.67-.2l6.5 3.61c.24.13.33.44.19.68-.08.17-.25.26-.43.26zM20.5 13.3c-.08 0-.17-.02-.24-.06L16 10.87l-4.26 2.37c-.24.13-.55.05-.68-.19s-.05-.55.19-.68l4.5-2.5a.53.53 0 0 1 .49 0l4.5 2.5c.24.13.33.44.19.68-.08.16-.25.25-.43.25z" fill="#e04023" opacity="1" data-original="#000000" class=""></path><path d="M16 21.3a.49.49 0 0 1-.44-.26.503.503 0 0 1 .19-.68L20 18.01v-4.36l-3.76 2.09c-.24.13-.55.05-.68-.19s-.05-.55.19-.68l4.5-2.5c.15-.09.34-.08.5.01s.25.24.25.42v5.5c0 .18-.1.35-.26.44l-4.5 2.5c-.07.04-.16.06-.24.06z" fill="#e04023" opacity="1" data-original="#000000" class=""></path><path d="M16 21.3c-.08 0-.17-.02-.24-.06l-4.5-2.5a.509.509 0 0 1-.26-.44v-5.5c0-.18.09-.34.25-.43.15-.09.34-.09.5-.01l4.5 2.5c.16.09.26.26.26.44v5.5c0 .18-.09.34-.25.43-.08.05-.17.07-.26.07zm-4-3.29 3.5 1.94v-4.36L12 13.65zM16 26.17c-.28 0-.5-.22-.5-.5V22.5c0-.28.22-.5.5-.5s.5.22.5.5v3.17c0 .27-.22.5-.5.5zM22 12.53c-.17 0-.33-.08-.42-.23a.495.495 0 0 1 .16-.69l2.46-1.55c.23-.15.54-.08.69.16.15.23.08.54-.16.69l-2.46 1.55c-.09.04-.18.07-.27.07zM9.96 12.53a.56.56 0 0 1-.27-.08L7.23 10.9a.513.513 0 0 1-.16-.69c.15-.23.46-.3.69-.16l2.46 1.55c.23.15.3.46.16.69a.47.47 0 0 1-.42.24zM24.46 21.53a.56.56 0 0 1-.27-.08l-2.46-1.55a.513.513 0 0 1-.16-.69c.15-.23.46-.3.69-.16l2.46 1.55c.23.15.3.46.16.69a.47.47 0 0 1-.42.24zM7.5 21.53c-.17 0-.33-.08-.42-.23a.51.51 0 0 1 .15-.7l2.46-1.55c.23-.15.54-.08.69.16.15.23.08.54-.16.69l-2.46 1.55c-.08.05-.17.08-.26.08zM16 9c-.28 0-.5-.22-.5-.5v-2c0-.28.22-.5.5-.5s.5.22.5.5v2c0 .28-.22.5-.5.5z" fill="#e04023" opacity="1" data-original="#000000" class=""></path></g></svg>
