<svg xmlns="http://www.w3.org/2000/svg" version="1.1" xmlns:xlink="http://www.w3.org/1999/xlink" width="512" height="512" x="0" y="0" viewBox="0 0 24 24" style="enable-background:new 0 0 512 512" xml:space="preserve" class=""><g><path fill="#f44336" d="M12 0C5.383 0 0 5.383 0 12s5.383 12 12 12 12-5.383 12-12S18.617 0 12 0z" opacity="1" data-original="#f44336" class=""></path><path fill="#fafafa" d="M16.419 15.006a.999.999 0 1 1-1.414 1.414L12 13.414 8.995 16.42a.997.997 0 0 1-1.414 0 .999.999 0 0 1 0-1.414L10.586 12 7.581 8.994A.999.999 0 1 1 8.995 7.58L12 10.586l3.005-3.006a.999.999 0 1 1 1.414 1.414L13.414 12z" opacity="1" data-original="#fafafa" class=""></path><path fill="#f44336" d="M12 0C5.383 0 0 5.383 0 12s5.383 12 12 12V13.414L8.995 16.42a.997.997 0 0 1-1.414 0 .999.999 0 0 1 0-1.414L10.586 12 7.581 8.994A.999.999 0 1 1 8.995 7.58L12 10.586z" opacity="1" data-original="#d43a2f" class=""></path><path fill="#dadada" d="M8.288 7.287a.999.999 0 0 0-.707 1.707L10.586 12l-3.005 3.006a.999.999 0 1 0 1.414 1.414L12 13.414v-2.828L8.995 7.58a1 1 0 0 0-.707-.293z" opacity="1" data-original="#dadada"></path></g></svg>
