<svg xmlns="http://www.w3.org/2000/svg" version="1.1" xmlns:xlink="http://www.w3.org/1999/xlink" width="512" height="512" x="0" y="0" viewBox="0 0 128 128" style="enable-background:new 0 0 512 512" xml:space="preserve" class=""><g><path d="M67 76.54c-3.39 1.45-8.21.71-10.27-.91a2 2 0 0 0-2.47 3.15A13.82 13.82 0 0 0 62 81.29V86a2 2 0 0 0 4 0v-5a13.33 13.33 0 0 0 2.56-.77 9.36 9.36 0 0 0 5.91-8c.66-6.77-5.15-8.93-9.82-10.66-4.85-1.8-7.13-3-7-5.78a4.72 4.72 0 0 1 2.68-4.12c2.8-1.5 6.8-1.18 10 .8a2 2 0 1 0 2.12-3.4A15.62 15.62 0 0 0 66 46.86V42a2 2 0 0 0-4 0v5a12 12 0 0 0-3.59 1.21 8.68 8.68 0 0 0-4.79 7.52c-.19 6 5.26 8 9.64 9.66 5.28 2 7.55 3.16 7.23 6.52A5.39 5.39 0 0 1 67 76.54z" fill="#e04023" opacity="1" data-original="#000000" class=""></path><path d="M64 100a36 36 0 1 0-36-36 36 36 0 0 0 36 36zm0-68a32 32 0 1 1-32 32 32 32 0 0 1 32-32z" fill="#e04023" opacity="1" data-original="#000000" class=""></path><path d="M64 12a2 2 0 0 0 0 4 48 48 0 1 1-48 48 2 2 0 0 0-4 0 52 52 0 1 0 52-52zM42.28 21a1.94 1.94 0 0 0 .87-.2 2 2 0 1 0-.87.2zM52.84 17.25a2.28 2.28 0 0 0 .44-.05 2 2 0 1 0-.44.05zM32.81 26.92a2 2 0 0 0 1.25-.44 2 2 0 1 0-1.25.44zM18.07 44.11a1.91 1.91 0 0 0 .87.2 2 2 0 0 0 .87-3.8 2 2 0 0 0-2.67.93 2 2 0 0 0 .93 2.67zM14.8 54.82a1.73 1.73 0 0 0 .45 0 2 2 0 0 0 1.94-1.55 2 2 0 1 0-2.39 1.5zM23.65 34.4a2 2 0 0 0 1.25.44 2 2 0 0 0 1.25-3.57 2 2 0 1 0-2.5 3.13z" fill="#e04023" opacity="1" data-original="#000000" class=""></path></g></svg>
